<?xml version="1.0" standalone="no"?><!DOCTYPE svg PUBLIC "-//W3C//DTD SVG 1.1//EN" "http://www.w3.org/Graphics/SVG/1.1/DTD/svg11.dtd"><svg t="1523797735060" class="icon" style="" viewBox="0 0 1024 1024" version="1.1" xmlns="http://www.w3.org/2000/svg" p-id="2713" xmlns:xlink="http://www.w3.org/1999/xlink" width="200" height="200"><defs><style type="text/css"></style></defs><path d="M667.468651 913.127173 637.724625 881.602679 915.858111 590.54004 462.375886 139.509554 487.281009 110.675027 973.258548 591.576793 667.468651 913.127173ZM526.007148 912.623313 50.857581 439.259913 50.857581 122.512619 364.104988 120.752229 839.254554 599.393272 526.007148 912.623313ZM358.133011 163.021126 89.564184 164.719652 89.564184 423.075883 525.723065 862.597901 786.483281 594.744844 358.133011 163.021126ZM251.168695 393.764901C209.805499 393.764901 176.27289 360.236362 176.27289 318.878592 176.27289 277.519194 209.805499 243.992284 251.168695 243.992284 292.532706 243.992284 326.064229 277.519194 326.064229 318.878592 326.064229 360.236362 292.532706 393.764901 251.168695 393.764901ZM251.468515 276.044244C227.826433 276.044244 208.660757 295.207207 208.660757 318.845762 208.660757 342.484587 227.826433 361.647551 251.468515 361.647551 275.110325 361.647551 294.274917 342.484587 294.274917 318.845762 294.274917 295.207207 275.110325 276.044244 251.468515 276.044244Z" p-id="2714" fill="#ffffff"></path></svg>